<svg xmlns="http://www.w3.org/2000/svg" width="64" height="64" enable-background="new 0 0 64 64" viewBox="0 0 64 64"><path fill="none" stroke="#000" stroke-miterlimit="10" stroke-width="2" d="M15.633,38.982c0,0-11.641,10.768-11.932,11.059
			s-0.123,3.323,3.371,0.34c3.492-2.982,4.754-4.511,11.252-2.158c4.143,1.499,16.006,8.803,24.447,6.839
			c8.439-1.965,10.402-11.06,10.402-11.06v-0.873c0,0-10.984-1.455-19.498-3.783C25.164,37.018,20.943,37.018,15.633,38.982z"/><path fill="none" stroke="#000" stroke-miterlimit="10" stroke-width="2" d="M53.172,43.354
			c3.574-0.733,7.205-1.315,7.205-1.315s-0.221-10.989-0.65-15.494c-0.443-4.518-5.238-10.559-11.572-13.096
			c-1.688-0.675-3.654-1.152-5.785-1.397c-2.072-0.244-4.285-0.268-6.543-0.07c-4.145,0.361-8.428,1.502-12.117,3.505
			c-6.09,3.293-7.684,17.473-8.092,23.514"/><path fill="none" stroke="#000" stroke-miterlimit="10" stroke-width="2" d="M42.496,11.329c0,0.256-0.047,0.489-0.127,0.722
			c-2.072-0.244-4.285-0.268-6.543-0.07c-0.07-0.209-0.104-0.431-0.104-0.651c0-1.502,1.514-2.724,3.387-2.724
			C40.984,8.605,42.496,9.827,42.496,11.329z"/></svg>